<svg id="Layer_1" data-name="Layer 1" xmlns="http://www.w3.org/2000/svg" viewBox="0 0 82 82"><path d="M2.82.76H79.28a2,2,0,0,1,2,2v7.86a0,0,0,0,1,0,0H.83a0,0,0,0,1,0,0V2.75A2,2,0,0,1,2.82.76Z"/><path d="M.83,22.57v35.5H81.28V22.57ZM31.24,51.29H17.63V48.52a5.94,5.94,0,0,0,3.34-5,10.24,10.24,0,0,0-.09-1.36H18V38.62h2.39a16.51,16.51,0,0,1-.24-2.77c0-4.3,2.75-7.13,6.75-7.13a6.88,6.88,0,0,1,3.52.82l-.74,3.92a4.61,4.61,0,0,0-2.51-.61c-2.12,0-2.78,1.57-2.78,3.21a12.09,12.09,0,0,0,.27,2.56H28.7v3.52H25a7.24,7.24,0,0,1-.27,2.42A6,6,0,0,1,23.27,47v.07h8Zm12.48.37a8.6,8.6,0,0,1-7.29-3.89,10.44,10.44,0,0,1-1.67-4.44H32.82V40.91h1.64v-.58c0-.34,0-.69,0-1H32.82V36.88h2a11.8,11.8,0,0,1,2.06-4.68,8.6,8.6,0,0,1,6.9-3.48,10.14,10.14,0,0,1,4.47,1l-.83,3.9a7.84,7.84,0,0,0-3.31-.82,4.32,4.32,0,0,0-3.68,1.84,6.15,6.15,0,0,0-1,2.22h7.43V39.3H39c0,.34,0,.72,0,1.06v.55h7.91v2.42H39.42a5.82,5.82,0,0,0,1,2.39,4.69,4.69,0,0,0,3.85,1.74,7.41,7.41,0,0,0,3.41-.89l.71,3.79A9,9,0,0,1,43.72,51.66Zm15.16-.89v3.48H56V51a10.76,10.76,0,0,1-5.08-1.47l.9-4a9.56,9.56,0,0,0,4.95,1.5c1.7,0,2.87-.75,2.87-2.11s-1-2.12-3.17-3c-3.19-1.23-5.37-2.94-5.37-6.25a6,6,0,0,1,5-6.08V26.4H59v3a9.69,9.69,0,0,1,4.33,1.13l-.87,3.86a8.81,8.81,0,0,0-4.29-1.16c-1.94,0-2.57,1-2.57,1.91,0,1.13,1,1.84,3.58,2.93,3.55,1.44,5,3.32,5,6.39A6.24,6.24,0,0,1,58.88,50.77Z"/><rect x="0.72" y="13.15" width="24.38" height="6.9"/><rect x="28.76" y="13.15" width="24.38" height="6.9"/><rect x="56.79" y="13.15" width="24.38" height="6.9"/><path d="M.81,60.63v4.93a2,2,0,0,0,2.05,2H38V71h-3l6.12,10.22L47.18,71H44.12V67.54H79.23a2,2,0,0,0,2-2V60.63Z"/></svg>