<svg id="Layer_1" data-name="Layer 1" xmlns="http://www.w3.org/2000/svg" viewBox="0 0 82 82"><defs><style>.cls-1{fill:#efe0da;}.cls-2{fill:#444c57;}.cls-3{fill:#63768a;}</style></defs><path class="cls-1" d="M80.78,21.16a32.59,32.59,0,0,0-1-5.13,27.11,27.11,0,0,0-2.43-5.57,19.23,19.23,0,0,0-5-5.63,19.59,19.59,0,0,0-8-3.65,27.74,27.74,0,0,0-5.3-.66L57.6.5a44.24,44.24,0,0,0-8.5.82,49.26,49.26,0,0,0-8.69,2.55,65,65,0,0,0-25.67,18A40.24,40.24,0,0,0,10,28.68,53.75,53.75,0,0,0,3.7,41.26,46.22,46.22,0,0,0,1,55.84a37.05,37.05,0,0,0,.21,4.69,31.49,31.49,0,0,0,1,5.14,26.58,26.58,0,0,0,2.35,5.6A19.14,19.14,0,0,0,9.38,77a19.45,19.45,0,0,0,7.95,3.76,27.6,27.6,0,0,0,5.29.72c.49,0,1,0,1.45,0a44.1,44.1,0,0,0,8.51-.7l.2,0a19.38,19.38,0,0,0,2.84-.47,24.32,24.32,0,0,0,3.72-1.14c.45-.18.89-.38,1.34-.57l.62-.22.61-.25.15,0a1.31,1.31,0,0,1,.27,0c.12,0,.26.22.41.54s.26.36.39.36h.22a1.35,1.35,0,0,0,.7-.21,1,1,0,0,0,.58-.92,2,2,0,0,1,0-.23,1.38,1.38,0,0,1,.25-.8,65,65,0,0,0,10.7-5.94A65.55,65.55,0,0,0,67.2,60.66a39.49,39.49,0,0,0,5.86-8.55,53.09,53.09,0,0,0,5.43-11.64,46.75,46.75,0,0,0,2.05-8.37,50.28,50.28,0,0,0,.51-6.25A41.23,41.23,0,0,0,80.78,21.16Z"/><path class="cls-2" d="M22.2,20.46H63a2,2,0,0,1,2,2v3.7a0,0,0,0,1,0,0H20.21a0,0,0,0,1,0,0V22.45A2,2,0,0,1,22.2,20.46Z"/><path class="cls-3" d="M20.21,33.07V53.6H65V33.07ZM37.15,49.68H29.57v-1.6a3.44,3.44,0,0,0,1.86-2.9,6.84,6.84,0,0,0-.05-.79H29.75v-2h1.33a10.26,10.26,0,0,1-.13-1.6c0-2.49,1.53-4.12,3.75-4.12a3.74,3.74,0,0,1,2,.47l-.42,2.27a2.44,2.44,0,0,0-1.4-.35c-1.18,0-1.54.9-1.54,1.85a7.29,7.29,0,0,0,.15,1.48h2.28v2H33.67a4.1,4.1,0,0,1-.15,1.4,3.51,3.51,0,0,1-.81,1.4v0h4.44Zm7,.21A4.75,4.75,0,0,1,40,47.64a6.11,6.11,0,0,1-.93-2.56H38V43.67h.91v-.33c0-.2,0-.4,0-.59H38v-1.4h1.11a7,7,0,0,1,1.15-2.71,4.74,4.74,0,0,1,3.84-2,5.42,5.42,0,0,1,2.5.59l-.47,2.25A4.21,4.21,0,0,0,44.31,39a2.36,2.36,0,0,0-2,1.06,3.48,3.48,0,0,0-.53,1.29h4.14v1.4H41.49c0,.19,0,.41,0,.61v.31h4.41v1.41H41.7a3.46,3.46,0,0,0,.55,1.38,2.59,2.59,0,0,0,2.15,1A4,4,0,0,0,46.29,47l.4,2.19A4.85,4.85,0,0,1,44.1,49.89Zm8.44-.51v2H50.91V49.52a5.91,5.91,0,0,1-2.82-.85l.5-2.31a5.22,5.22,0,0,0,2.76.87c.94,0,1.59-.44,1.59-1.23s-.53-1.22-1.76-1.71c-1.78-.71-3-1.7-3-3.62A3.46,3.46,0,0,1,51,37.16V35.28h1.63V37a5.33,5.33,0,0,1,2.41.65l-.48,2.23a5,5,0,0,0-2.4-.67c-1.08,0-1.43.56-1.43,1.11s.58,1.06,2,1.7c2,.83,2.77,1.91,2.77,3.69A3.57,3.57,0,0,1,52.54,49.38Z"/><rect class="cls-3" x="20.15" y="27.62" width="13.58" height="3.99"/><rect class="cls-3" x="35.77" y="27.62" width="13.58" height="3.99"/><rect class="cls-3" x="51.38" y="27.62" width="13.58" height="3.99"/><path class="cls-3" d="M20.21,55.08v2.85a1.15,1.15,0,0,0,1.14,1.15H40.9v2H39.2L42.61,67,46,61.09h-1.7v-2H63.88A1.14,1.14,0,0,0,65,57.94V55.08Z"/></svg>