<svg id="Layer_1" data-name="Layer 1" xmlns="http://www.w3.org/2000/svg" viewBox="0 0 82 82"><rect x="0.61" y="23.88" width="24.41" height="7.32"/><rect x="0.61" y="33.65" width="24.41" height="7.32"/><rect x="0.61" y="43.41" width="24.41" height="7.32"/><path d="M2.6.69H79.16a2,2,0,0,1,2,2v9a0,0,0,0,1,0,0H.61a0,0,0,0,1,0,0v-9a2,2,0,0,1,2-2Z"/><path d="M79.33,62.94v1.83A1.21,1.21,0,0,1,78.11,66H3.66a1.21,1.21,0,0,1-1.22-1.22V62.94H.61v2.44a2.45,2.45,0,0,0,2.44,2.45h36v3.33H35.41l5.47,9.48,5.48-9.48H42.72V67.83h36a2.42,2.42,0,0,0,2.42-2.43V62.94Z"/><path d="M28.68,23.88V60.5H81.16V23.88ZM45.14,53.6H31.43V50.72A6.16,6.16,0,0,0,34.8,45.5a11.4,11.4,0,0,0-.09-1.42H31.76V40.43h2.41a18,18,0,0,1-.24-2.88c0-4.47,2.76-7.42,6.79-7.42a6.83,6.83,0,0,1,3.55.85l-.75,4.09A4.45,4.45,0,0,0,41,34.43c-2.13,0-2.79,1.63-2.79,3.33a13.14,13.14,0,0,0,.27,2.67h4.12v3.65H38.86a7.78,7.78,0,0,1-.27,2.52,6.19,6.19,0,0,1-1.47,2.52v.08h8ZM57.7,54a8.57,8.57,0,0,1-7.33-4.05,11,11,0,0,1-1.68-4.61h-2V42.81h1.66V42.2c0-.35,0-.71,0-1.06H46.73V38.62h2a12.41,12.41,0,0,1,2.07-4.87,8.56,8.56,0,0,1,6.94-3.62,9.85,9.85,0,0,1,4.51,1.07l-.84,4a7.73,7.73,0,0,0-3.33-.85,4.3,4.3,0,0,0-3.7,1.92,6.31,6.31,0,0,0-1,2.31h7.48v2.52H53c0,.35,0,.74,0,1.1v.57h8v2.52H53.38a6.06,6.06,0,0,0,1,2.48,4.65,4.65,0,0,0,3.88,1.81,7.3,7.3,0,0,0,3.42-.92l.72,3.94A8.94,8.94,0,0,1,57.7,54ZM73,53.06v3.63H70V53.31a10.58,10.58,0,0,1-5.11-1.52l.9-4.16a9.35,9.35,0,0,0,5,1.57c1.71,0,2.88-.79,2.88-2.21s-1-2.2-3.18-3.08c-3.22-1.28-5.41-3.06-5.41-6.5a6.23,6.23,0,0,1,5.08-6.32V27.72h2.94v3.12A9.61,9.61,0,0,1,77.48,32l-.87,4a8.65,8.65,0,0,0-4.33-1.21c-2,0-2.58,1-2.58,2,0,1.17,1,1.91,3.6,3,3.58,1.49,5,3.44,5,6.64A6.44,6.44,0,0,1,73,53.06Z"/><rect x="0.61" y="53.18" width="24.41" height="7.32"/><rect x="0.5" y="13.87" width="24.41" height="7.32"/><rect x="28.57" y="13.87" width="24.41" height="7.32"/><rect x="56.65" y="13.87" width="24.41" height="7.32"/></svg>