<svg id="Layer_1" data-name="Layer 1" xmlns="http://www.w3.org/2000/svg" viewBox="0 0 82 82"><defs><style>.cls-1{fill:#fdfeff;}</style></defs><path d="M80.78,21.16a32.59,32.59,0,0,0-1-5.13,27.11,27.11,0,0,0-2.43-5.57,19.23,19.23,0,0,0-5-5.63,19.59,19.59,0,0,0-8-3.65,27.74,27.74,0,0,0-5.3-.66L57.6.5a44.24,44.24,0,0,0-8.5.82,49.26,49.26,0,0,0-8.69,2.55,65,65,0,0,0-25.67,18A40.24,40.24,0,0,0,10,28.68,53.75,53.75,0,0,0,3.7,41.26,46.22,46.22,0,0,0,1,55.84a37.05,37.05,0,0,0,.21,4.69,31.49,31.49,0,0,0,1,5.14,26.58,26.58,0,0,0,2.35,5.6A19.14,19.14,0,0,0,9.38,77a19.45,19.45,0,0,0,7.95,3.76,27.6,27.6,0,0,0,5.29.72c.49,0,1,0,1.45,0a44.1,44.1,0,0,0,8.51-.7l.2,0a19.38,19.38,0,0,0,2.84-.47,24.32,24.32,0,0,0,3.72-1.14c.45-.18.89-.38,1.34-.57l.62-.22.61-.25.15,0a1.31,1.31,0,0,1,.27,0c.12,0,.26.22.41.54s.26.36.39.36h.22a1.35,1.35,0,0,0,.7-.21,1,1,0,0,0,.58-.92,2,2,0,0,1,0-.23,1.38,1.38,0,0,1,.25-.8,65,65,0,0,0,10.7-5.94A65.55,65.55,0,0,0,67.2,60.66a39.49,39.49,0,0,0,5.86-8.55,53.09,53.09,0,0,0,5.43-11.64,46.75,46.75,0,0,0,2.05-8.37,50.28,50.28,0,0,0,.51-6.25A41.23,41.23,0,0,0,80.78,21.16Z"/><rect class="cls-1" x="19.75" y="35.13" width="12.9" height="3.87"/><rect class="cls-1" x="19.75" y="40.29" width="12.9" height="3.87"/><rect class="cls-1" x="19.75" y="45.45" width="12.9" height="3.87"/><path class="cls-1" d="M21.74,22.88H60.31a2,2,0,0,1,2,2v3.8a0,0,0,0,1,0,0H19.75a0,0,0,0,1,0,0V24.87A2,2,0,0,1,21.74,22.88Z"/><path class="cls-1" d="M61.34,55.77v1a.64.64,0,0,1-.64.64H21.36a.64.64,0,0,1-.64-.64v-1h-1v1.29A1.29,1.29,0,0,0,21,58.35h19v1.76H38.13l2.9,5,2.89-5H42V58.35H61a1.29,1.29,0,0,0,1.29-1.29V55.77Z"/><path class="cls-1" d="M34.58,35.13V54.48H62.31V35.13Zm8.7,15.7H36V49.31a3.24,3.24,0,0,0,1.78-2.75,6.45,6.45,0,0,0,0-.76H36.21V43.87h1.27a9.35,9.35,0,0,1-.13-1.52c0-2.36,1.46-3.92,3.59-3.92a3.64,3.64,0,0,1,1.88.45L42.42,41a2.33,2.33,0,0,0-1.34-.34c-1.12,0-1.47.87-1.47,1.77a7.3,7.3,0,0,0,.14,1.4h2.18V45.8H40a4.25,4.25,0,0,1-.15,1.34A3.29,3.29,0,0,1,39,48.47v0h4.24Zm6.63.21A4.53,4.53,0,0,1,46,48.9a5.73,5.73,0,0,1-.89-2.44h-1V45.13H45v-.32c0-.19,0-.37,0-.56h-.89V42.92h1.06a6.48,6.48,0,0,1,1.1-2.57A4.51,4.51,0,0,1,50,38.43a5.24,5.24,0,0,1,2.38.57l-.45,2.14a4,4,0,0,0-1.76-.45,2.27,2.27,0,0,0-1.95,1,3.19,3.19,0,0,0-.51,1.22h4v1.33H47.42a5.62,5.62,0,0,0,0,.58v.3h4.21v1.33h-4a3.12,3.12,0,0,0,.52,1.31,2.46,2.46,0,0,0,2.05,1A3.81,3.81,0,0,0,52,48.24l.38,2.08A4.68,4.68,0,0,1,49.91,51ZM58,50.55v1.91H56.42V50.68a5.63,5.63,0,0,1-2.7-.81l.48-2.19a5,5,0,0,0,2.64.83c.9,0,1.52-.42,1.52-1.17s-.51-1.16-1.68-1.63C55,45,53.82,44.1,53.82,42.28a3.29,3.29,0,0,1,2.68-3.34V37.16h1.56v1.65a5,5,0,0,1,2.3.62l-.46,2.12a4.58,4.58,0,0,0-2.29-.64c-1,0-1.36.53-1.36,1.05s.55,1,1.9,1.61c1.89.79,2.66,1.82,2.66,3.51A3.41,3.41,0,0,1,58,50.55Z"/><rect class="cls-1" x="19.75" y="50.61" width="12.9" height="3.87"/><rect class="cls-1" x="19.69" y="29.84" width="12.9" height="3.87"/><rect class="cls-1" x="34.52" y="29.84" width="12.9" height="3.87"/><rect class="cls-1" x="49.36" y="29.84" width="12.9" height="3.87"/></svg>